<svg width="560" height="566" viewBox="0 0 560 566" fill="none" xmlns="http://www.w3.org/2000/svg">
<rect width="560" height="566" rx="15" fill="white"/>
<g clip-path="url(#clip0_19_312)">
<path d="M49.0339 462.416C40.3401 468.402 31.4499 474.58 25.43 483.251C19.4104 491.922 16.7826 503.759 21.6195 513.142L21.4948 513.727C25.1608 515.015 29.0968 515.338 32.9238 514.664C36.7507 513.99 40.3396 512.342 43.3446 509.878C50.9973 503.455 53.3969 492.872 55.349 483.074L61.1236 454.091L49.0339 462.416Z" fill="#F0F0F0"/>
<path d="M57.4071 491.643C51.6078 492.926 45.6655 494.267 40.6927 497.516C35.72 500.764 31.8465 506.381 32.3845 512.296L32.1958 512.575C33.8349 514.022 35.8191 515.023 37.9572 515.481C40.0953 515.938 42.3153 515.838 44.4033 515.189C49.7521 513.458 53.2413 508.447 56.3314 503.75L65.4718 489.859L57.4071 491.643Z" fill="#F0F0F0"/>
<path d="M541.562 54.8728H46.3856C46.1955 54.8722 46.0133 54.7961 45.8791 54.6614C45.7448 54.5267 45.6694 54.3443 45.6694 54.1541C45.6694 53.9639 45.7448 53.7815 45.8791 53.6468C46.0133 53.5121 46.1955 53.4361 46.3856 53.4354H541.562C541.752 53.4361 541.934 53.5121 542.068 53.6468C542.202 53.7815 542.278 53.9639 542.278 54.1541C542.278 54.3443 542.202 54.5267 542.068 54.6614C541.934 54.7961 541.752 54.8722 541.562 54.8728Z" fill="#CACACA"/>
<path d="M62.5613 44.8111C66.9274 44.8111 70.4669 41.2717 70.4669 36.9056C70.4669 32.5394 66.9274 29 62.5613 29C58.1952 29 54.6558 32.5394 54.6558 36.9056C54.6558 41.2717 58.1952 44.8111 62.5613 44.8111Z" fill="#3F3D56"/>
<path d="M89.8719 44.8111C94.238 44.8111 97.7774 41.2717 97.7774 36.9056C97.7774 32.5394 94.238 29 89.8719 29C85.5058 29 81.9663 32.5394 81.9663 36.9056C81.9663 41.2717 85.5058 44.8111 89.8719 44.8111Z" fill="#3F3D56"/>
<path d="M117.182 44.8111C121.548 44.8111 125.087 41.2717 125.087 36.9056C125.087 32.5394 121.548 29 117.182 29C112.816 29 109.276 32.5394 109.276 36.9056C109.276 41.2717 112.816 44.8111 117.182 44.8111Z" fill="#3F3D56"/>
<path d="M525.198 33.8357H505.794C505.413 33.8357 505.047 33.6842 504.777 33.4147C504.508 33.1451 504.356 32.7795 504.356 32.3983C504.356 32.0171 504.508 31.6515 504.777 31.3819C505.047 31.1124 505.413 30.9609 505.794 30.9609H525.198C525.58 30.9609 525.945 31.1124 526.215 31.3819C526.484 31.6515 526.636 32.0171 526.636 32.3983C526.636 32.7795 526.484 33.1451 526.215 33.4147C525.945 33.6842 525.58 33.8357 525.198 33.8357Z" fill="#3F3D56"/>
<path d="M525.198 39.2258H505.794C505.413 39.2258 505.047 39.0744 504.777 38.8048C504.508 38.5353 504.356 38.1697 504.356 37.7884C504.356 37.4072 504.508 37.0416 504.777 36.7721C505.047 36.5025 505.413 36.3511 505.794 36.3511H525.198C525.58 36.3511 525.945 36.5025 526.215 36.7721C526.484 37.0416 526.636 37.4072 526.636 37.7884C526.636 38.1697 526.484 38.5353 526.215 38.8048C525.945 39.0744 525.58 39.2258 525.198 39.2258Z" fill="#3F3D56"/>
<path d="M525.198 44.616H505.794C505.413 44.616 505.047 44.4645 504.777 44.195C504.508 43.9254 504.356 43.5598 504.356 43.1786C504.356 42.7974 504.508 42.4318 504.777 42.1622C505.047 41.8926 505.413 41.7412 505.794 41.7412H525.198C525.579 41.7425 525.943 41.8945 526.212 42.164C526.48 42.4334 526.631 42.7982 526.631 43.1786C526.631 43.5589 526.48 43.9238 526.212 44.1932C525.943 44.4626 525.579 44.6146 525.198 44.616Z" fill="#3F3D56"/>
<path d="M382.898 85.6915H54.458V282.612H382.898V85.6915Z" fill="#F0F0F0"/>
<path d="M526.636 85.6915H423.145V147.741H526.636V85.6915Z" fill="#F0F0F0"/>
<path d="M505.989 176.246H444.412C443.643 176.246 442.905 175.941 442.361 175.397C441.817 174.853 441.512 174.115 441.512 173.346C441.512 172.577 441.817 171.839 442.361 171.295C442.905 170.751 443.643 170.445 444.412 170.445H505.989C506.758 170.445 507.496 170.751 508.04 171.295C508.584 171.839 508.889 172.577 508.889 173.346C508.889 174.115 508.584 174.853 508.04 175.397C507.496 175.941 506.758 176.246 505.989 176.246Z" fill="#E4E4E4"/>
<path d="M496.06 166.318H454.34C453.571 166.318 452.833 166.012 452.289 165.469C451.745 164.925 451.439 164.187 451.439 163.418C451.439 162.648 451.745 161.911 452.289 161.367C452.833 160.823 453.571 160.517 454.34 160.517H496.06C496.83 160.517 497.567 160.823 498.111 161.367C498.655 161.911 498.961 162.648 498.961 163.418C498.961 164.187 498.655 164.925 498.111 165.469C497.567 166.012 496.83 166.318 496.06 166.318Z" fill="#E4E4E4"/>
<path d="M526.636 198.525H423.145V260.575H526.636V198.525Z" fill="#F0F0F0"/>
<path d="M505.989 289.08H444.412C443.643 289.08 442.905 288.775 442.361 288.231C441.817 287.687 441.512 286.949 441.512 286.18C441.512 285.411 441.817 284.673 442.361 284.129C442.905 283.585 443.643 283.279 444.412 283.279H505.989C506.758 283.279 507.496 283.585 508.04 284.129C508.584 284.673 508.889 285.411 508.889 286.18C508.889 286.949 508.584 287.687 508.04 288.231C507.496 288.775 506.758 289.08 505.989 289.08Z" fill="#E4E4E4"/>
<path d="M496.06 279.152H454.34C453.571 279.152 452.833 278.846 452.289 278.303C451.745 277.759 451.439 277.021 451.439 276.252C451.439 275.482 451.745 274.745 452.289 274.201C452.833 273.657 453.571 273.351 454.34 273.351H496.06C496.829 273.353 497.565 273.659 498.108 274.203C498.651 274.746 498.956 275.483 498.956 276.252C498.956 277.02 498.651 277.757 498.108 278.301C497.565 278.845 496.829 279.151 496.06 279.152Z" fill="#E4E4E4"/>
<path d="M224.386 191.627C237.922 191.627 248.895 180.654 248.895 167.118C248.895 153.582 237.922 142.609 224.386 142.609C210.85 142.609 199.876 153.582 199.876 167.118C199.876 180.654 210.85 191.627 224.386 191.627Z" fill="#9E616A"/>
<path d="M265.681 282.612H204.226L207.675 204.9L208.099 204.455L214.201 198.015H233.606L240.807 204.986L241.374 205.54L256.697 220.222L265.681 282.612Z" fill="white"/>
<path d="M221.237 282.612H174.529C174.22 252.873 173.976 230.435 173.976 230.435L176.362 228.983L176.376 228.976L202.572 213.072L208.07 204.138L208.099 204.455L209.716 223.284C209.716 223.284 218.505 251.68 221.237 282.612Z" fill="#2F2E41"/>
<path d="M284.79 282.612H243.229C241.008 272.536 239.851 262.941 240.354 254.942C242.395 222.264 237.687 204.138 239.728 204.138L240.806 204.986L253.628 215.113L270.51 221.301L282.224 225.598L284.265 226.346V227.33C284.273 232.275 284.323 255.237 284.79 282.612Z" fill="#2F2E41"/>
<path d="M201.198 174.786C201.198 174.786 203.281 171.129 202.797 158.912C202.313 146.695 220.916 153.605 236.461 152.44C252.006 151.274 248.715 172.836 248.715 172.836C248.715 172.836 249.836 171.554 252.237 161.148C254.639 150.742 249.187 140.371 249.187 140.371C247.581 129.436 238.928 132.941 238.928 132.941C243.095 134.563 242.295 138.032 242.295 138.032C238.768 131.847 230.115 135.352 230.115 135.352C218.574 128.11 206.877 137.647 206.877 137.647C192.936 140.811 201.112 151.898 201.112 151.898C187.091 158.984 201.198 174.786 201.198 174.786Z" fill="#2F2E41"/>
<path d="M160.997 282.612C162.189 258.759 163.102 240.044 162.743 238.6C161.737 234.582 175.931 229.142 176.362 228.983L176.369 228.976H176.376L179.086 230.435L181.069 282.612H160.997Z" fill="#2F2E41"/>
<path d="M294.564 282.612H273.471L267.434 222.982L269.92 221.164C269.92 221.164 270.136 221.214 270.51 221.301C272.443 221.782 278.681 223.414 282.224 225.598C283.008 226.041 283.701 226.629 284.265 227.33C284.611 227.743 284.783 228.274 284.747 228.811C284.567 230.5 289.167 254.375 294.564 282.612Z" fill="#2F2E41"/>
<path d="M330.075 306.688H107.282C106.425 306.689 105.603 307.031 104.998 307.637C104.393 308.243 104.053 309.065 104.053 309.922C104.053 310.779 104.393 311.601 104.998 312.207C105.603 312.813 106.425 313.155 107.282 313.156H330.075C330.5 313.157 330.921 313.074 331.314 312.912C331.707 312.749 332.064 312.511 332.365 312.211C332.666 311.91 332.905 311.554 333.067 311.161C333.23 310.768 333.314 310.347 333.314 309.922C333.314 309.497 333.23 309.076 333.067 308.683C332.905 308.291 332.666 307.934 332.365 307.633C332.064 307.333 331.707 307.095 331.314 306.933C330.921 306.77 330.5 306.687 330.075 306.688Z" fill="#CACACA"/>
<path d="M269.705 306.688V313.156H107.282C106.425 313.155 105.603 312.813 104.998 312.207C104.393 311.601 104.053 310.779 104.053 309.922C104.053 309.065 104.393 308.243 104.998 307.637C105.603 307.031 106.425 306.689 107.282 306.688H269.705Z" fill="#3F3D56"/>
<path d="M269.705 316.39C273.277 316.39 276.173 313.494 276.173 309.922C276.173 306.35 273.277 303.454 269.705 303.454C266.133 303.454 263.237 306.35 263.237 309.922C263.237 313.494 266.133 316.39 269.705 316.39Z" fill="#3F3D56"/>
<path d="M218.678 363.824C216.037 363.824 213.456 363.041 211.26 361.573C209.064 360.106 207.353 358.021 206.343 355.581C205.332 353.141 205.068 350.457 205.583 347.867C206.098 345.277 207.37 342.898 209.237 341.03C211.104 339.163 213.483 337.891 216.073 337.376C218.663 336.861 221.348 337.125 223.788 338.136C226.228 339.147 228.313 340.858 229.78 343.054C231.247 345.249 232.03 347.831 232.03 350.472C232.026 354.012 230.618 357.405 228.115 359.908C225.612 362.412 222.218 363.82 218.678 363.824ZM218.678 338.147C216.241 338.147 213.858 338.87 211.831 340.224C209.804 341.578 208.224 343.503 207.291 345.755C206.359 348.007 206.115 350.485 206.59 352.876C207.066 355.267 208.239 357.463 209.963 359.187C211.687 360.91 213.883 362.084 216.274 362.56C218.664 363.035 221.143 362.791 223.395 361.858C225.647 360.926 227.572 359.346 228.926 357.319C230.28 355.292 231.003 352.909 231.003 350.472C230.999 347.204 229.7 344.071 227.389 341.761C225.079 339.45 221.946 338.15 218.678 338.147Z" fill="#3F3D56"/>
<path d="M216.915 357.661C216.779 357.661 216.648 357.607 216.552 357.511C216.455 357.414 216.401 357.284 216.401 357.148V343.796C216.401 343.728 216.413 343.66 216.439 343.597C216.464 343.535 216.502 343.477 216.55 343.429C216.598 343.381 216.655 343.343 216.717 343.316C216.78 343.29 216.847 343.277 216.915 343.277C216.983 343.277 217.05 343.29 217.113 343.316C217.175 343.343 217.232 343.381 217.28 343.429C217.328 343.477 217.365 343.535 217.391 343.597C217.416 343.66 217.429 343.728 217.428 343.796V357.148C217.428 357.284 217.374 357.414 217.278 357.511C217.182 357.607 217.051 357.661 216.915 357.661Z" fill="#3F3D56"/>
<path d="M220.441 357.661C220.305 357.661 220.174 357.607 220.078 357.511C219.982 357.414 219.928 357.284 219.928 357.148V343.796C219.927 343.728 219.94 343.661 219.965 343.598C219.991 343.535 220.029 343.478 220.076 343.429C220.124 343.381 220.181 343.343 220.244 343.317C220.306 343.291 220.373 343.277 220.441 343.277C220.509 343.277 220.576 343.291 220.639 343.317C220.702 343.343 220.758 343.381 220.806 343.429C220.854 343.478 220.892 343.535 220.917 343.598C220.943 343.661 220.955 343.728 220.955 343.796V357.148C220.955 357.284 220.901 357.414 220.804 357.511C220.708 357.607 220.578 357.661 220.441 357.661Z" fill="#3F3D56"/>
<path d="M157.523 350.472C157.523 347.831 158.306 345.249 159.773 343.054C161.24 340.858 163.326 339.147 165.765 338.136C168.205 337.125 170.89 336.861 173.48 337.376C176.07 337.891 178.449 339.163 180.316 341.03C182.184 342.898 183.455 345.277 183.97 347.867C184.486 350.457 184.221 353.141 183.211 355.581C182.2 358.021 180.489 360.106 178.293 361.573C176.097 363.041 173.516 363.824 170.875 363.824C167.335 363.82 163.941 362.412 161.438 359.908C158.935 357.405 157.527 354.012 157.523 350.472ZM158.55 350.472C158.55 352.909 159.273 355.292 160.627 357.319C161.981 359.346 163.906 360.926 166.158 361.858C168.411 362.791 170.889 363.035 173.279 362.56C175.67 362.084 177.866 360.91 179.59 359.187C181.314 357.463 182.488 355.267 182.963 352.876C183.439 350.485 183.195 348.007 182.262 345.755C181.329 343.503 179.749 341.578 177.722 340.224C175.695 338.87 173.313 338.147 170.875 338.147C167.607 338.151 164.475 339.45 162.164 341.761C159.853 344.071 158.554 347.204 158.55 350.472Z" fill="#3F3D56"/>
<path d="M176.642 354.967C176.736 354.967 176.828 354.936 176.902 354.879C176.977 354.822 177.031 354.742 177.055 354.651C177.079 354.56 177.073 354.464 177.037 354.377C177.001 354.29 176.937 354.217 176.856 354.17L170.45 350.472L176.856 346.773C176.954 346.717 177.026 346.623 177.055 346.514C177.084 346.405 177.069 346.288 177.012 346.19C176.956 346.092 176.863 346.02 176.753 345.991C176.644 345.962 176.527 345.977 176.429 346.034L169.382 350.102C169.318 350.139 169.264 350.193 169.226 350.258C169.189 350.323 169.169 350.397 169.169 350.472C169.169 350.547 169.189 350.62 169.226 350.685C169.264 350.75 169.318 350.804 169.382 350.842L176.429 354.91C176.494 354.948 176.567 354.967 176.642 354.967Z" fill="#3F3D56"/>
<path d="M167.194 356.451C167.307 356.451 167.416 356.406 167.496 356.325C167.576 356.245 167.621 356.137 167.621 356.023V344.92C167.621 344.807 167.576 344.698 167.496 344.618C167.416 344.538 167.307 344.493 167.194 344.493C167.08 344.493 166.972 344.538 166.892 344.618C166.812 344.698 166.767 344.807 166.767 344.92V356.023C166.767 356.137 166.812 356.245 166.892 356.325C166.972 356.406 167.08 356.451 167.194 356.451Z" fill="#3F3D56"/>
<path d="M266.481 363.824C263.841 363.824 261.259 363.041 259.063 361.573C256.868 360.106 255.156 358.021 254.146 355.581C253.135 353.141 252.871 350.457 253.386 347.867C253.901 345.277 255.173 342.898 257.04 341.03C258.907 339.163 261.287 337.891 263.877 337.376C266.467 336.861 269.151 337.125 271.591 338.136C274.031 339.147 276.116 340.858 277.583 343.054C279.05 345.249 279.833 347.831 279.833 350.472C279.829 354.012 278.421 357.405 275.918 359.908C273.415 362.412 270.021 363.82 266.481 363.824ZM266.481 338.147C264.044 338.147 261.661 338.87 259.634 340.224C257.607 341.578 256.027 343.503 255.095 345.755C254.162 348.007 253.918 350.485 254.393 352.876C254.869 355.267 256.043 357.463 257.766 359.187C259.49 360.91 261.686 362.084 264.077 362.56C266.468 363.035 268.946 362.791 271.198 361.858C273.45 360.926 275.375 359.346 276.729 357.319C278.083 355.292 278.806 352.909 278.806 350.472C278.803 347.204 277.503 344.071 275.192 341.761C272.882 339.45 269.749 338.15 266.481 338.147Z" fill="#3F3D56"/>
<path d="M260.714 354.967C260.62 354.967 260.529 354.936 260.454 354.879C260.379 354.822 260.326 354.742 260.301 354.651C260.277 354.56 260.283 354.463 260.319 354.377C260.355 354.29 260.419 354.217 260.5 354.17L266.906 350.472L260.5 346.773C260.402 346.716 260.331 346.623 260.302 346.514C260.273 346.405 260.289 346.288 260.345 346.191C260.402 346.093 260.494 346.021 260.604 345.992C260.713 345.962 260.829 345.977 260.927 346.033L267.974 350.102C268.039 350.139 268.093 350.193 268.13 350.258C268.167 350.323 268.187 350.397 268.187 350.472C268.187 350.547 268.167 350.62 268.13 350.685C268.093 350.75 268.039 350.804 267.974 350.842L260.927 354.91C260.862 354.947 260.789 354.967 260.714 354.967Z" fill="#3F3D56"/>
<path d="M270.163 356.451C270.05 356.451 269.941 356.406 269.861 356.325C269.781 356.245 269.736 356.137 269.736 356.023V344.92C269.736 344.807 269.781 344.698 269.861 344.618C269.941 344.538 270.05 344.493 270.163 344.493C270.276 344.493 270.385 344.538 270.465 344.618C270.545 344.698 270.59 344.807 270.59 344.92V356.023C270.59 356.137 270.545 356.245 270.465 356.325C270.385 356.406 270.276 356.451 270.163 356.451Z" fill="#3F3D56"/>
<path d="M90.2289 360.535C89.5231 359.828 88.981 358.975 88.6407 358.036C88.3003 357.096 88.17 356.094 88.259 355.099C88.348 354.104 88.6541 353.141 89.1556 352.277C89.6572 351.413 90.3421 350.669 91.1621 350.099L84.5928 326.721L96.6137 330.559L101.009 352.17C101.876 353.611 102.185 355.321 101.876 356.974C101.567 358.627 100.663 360.11 99.3343 361.141C98.0055 362.172 96.3446 362.68 94.6664 362.568C92.9882 362.456 91.4093 361.733 90.2289 360.535Z" fill="#FFB6B6"/>
<path d="M87.0161 244.063L84.526 241.472C84.526 241.472 76.8274 246.76 78.4563 263.152C79.6595 275.26 75.8574 280.394 76.2823 315.586L87.0161 347.815L99.431 341.307L90.449 301.541L87.0161 244.063Z" fill="white"/>
<path d="M96.3294 505.636H105.231L109.467 471.299L96.3276 471.3L96.3294 505.636Z" fill="#FFB6B6"/>
<path d="M94.0591 502.729L111.59 502.729C114.553 502.729 117.396 503.906 119.491 506.001C121.586 508.096 122.763 510.938 122.763 513.901V514.264L94.0597 514.265L94.0591 502.729Z" fill="#2F2E41"/>
<path d="M122.291 502.483L131.127 503.566L139.51 470.001L126.469 468.402L122.291 502.483Z" fill="#FFB6B6"/>
<path d="M120.39 499.321L137.791 501.455C140.732 501.816 143.41 503.33 145.234 505.665C147.059 508 147.881 510.963 147.521 513.904L147.477 514.265L118.986 510.771L120.39 499.321Z" fill="#2F2E41"/>
<path d="M91.7158 329.588C91.7158 329.588 74.5676 341.307 83.1413 373.03L94.736 496.162L108.511 496.065L114.346 435.307L118.311 392.533L131.561 436.765L120.663 491.04L136.747 492.733L156.017 429.616L146.724 339.752L91.7158 329.588Z" fill="#2F2E41"/>
<path d="M133.092 238.145L124.373 231.132L101.249 230.181L84.526 241.472C84.526 241.472 82.7997 281.679 94.1161 317.495L88.1832 332.456L147.504 339.898L133.092 238.145Z" fill="white"/>
<path d="M114.396 221.575C125.35 221.575 134.231 212.695 134.231 201.741C134.231 190.787 125.35 181.907 114.396 181.907C103.442 181.907 94.562 190.787 94.562 201.741C94.562 212.695 103.442 221.575 114.396 221.575Z" fill="#FFB6B6"/>
<path d="M119.599 177.223H115.192C112.12 176.307 108.878 176.122 105.722 176.681C102.566 177.241 99.5849 178.529 97.0153 180.444C94.4457 182.36 92.3589 184.848 90.9212 187.713C89.4835 190.577 88.7346 193.737 88.7343 196.942L81.8695 219.596C81.6716 220.249 81.6293 220.939 81.7462 221.612C81.8631 222.284 82.1358 222.92 82.5425 223.468C82.9492 224.016 83.4786 224.462 84.0884 224.769C84.6981 225.075 85.3712 225.235 86.0537 225.235H89.4045C90.8076 223.237 91.4196 220.789 91.1222 218.365C91.7452 219.883 92.1819 221.47 92.4224 223.092C92.5001 223.806 92.4854 224.526 92.3785 225.235H121.529C121.718 222.376 120.771 219.558 118.894 217.393C121.242 219.739 123.284 222.375 124.968 225.235H125.516C126.675 225.235 127.787 224.775 128.607 223.955C129.427 223.135 129.888 222.023 129.888 220.863V198.657H141.034C141.034 195.842 140.479 193.055 139.402 190.454C138.325 187.854 136.746 185.491 134.756 183.501C132.765 181.51 130.402 179.932 127.802 178.854C125.201 177.777 122.414 177.223 119.599 177.223Z" fill="#2F2E41"/>
<path d="M141.671 358.82C140.965 358.113 140.423 357.26 140.083 356.321C139.742 355.382 139.612 354.379 139.701 353.384C139.79 352.389 140.096 351.426 140.598 350.562C141.099 349.698 141.784 348.954 142.604 348.384L136.035 325.006L148.056 328.844L152.451 350.456C153.318 351.897 153.627 353.606 153.318 355.259C153.009 356.912 152.105 358.395 150.776 359.426C149.447 360.457 147.786 360.965 146.108 360.853C144.43 360.742 142.851 360.018 141.671 358.82Z" fill="#FFB6B6"/>
<path d="M125.573 242.582L133.092 238.145C133.092 238.145 144.919 236.061 146.181 251.817C147.443 267.574 149.262 308.475 149.262 308.475L152.95 342.954L139.262 345.873L123.528 298.722L125.573 242.582Z" fill="white"/>
<path d="M194.619 515.882H12.8574C12.63 515.882 12.4119 515.792 12.2511 515.631C12.0903 515.47 12 515.252 12 515.024C12 514.797 12.0903 514.579 12.2511 514.418C12.4119 514.257 12.63 514.167 12.8574 514.167H194.619C194.846 514.167 195.064 514.257 195.225 514.418C195.386 514.579 195.476 514.797 195.476 515.024C195.476 515.252 195.386 515.47 195.225 515.631C195.064 515.792 194.846 515.882 194.619 515.882Z" fill="#CACACA"/>
</g>
<defs>
<clipPath id="clip0_19_312">
<rect width="530.28" height="486.882" fill="white" transform="translate(12 29)"/>
</clipPath>
</defs>
</svg>
