<svg width="191" height="77" viewBox="0 0 191 77" fill="none" xmlns="http://www.w3.org/2000/svg">
<path d="M23.7146 47.2325C30.5044 38.3032 30.8956 23.8385 39.445 30.9301C47.9943 38.0217 49.4206 51.0092 42.6308 59.9385C35.8409 68.8678 23.4061 70.3576 14.8568 63.2659C6.30744 56.1743 16.9247 56.1617 23.7146 47.2325Z" fill="url(#paint0_linear_13_121)"/>
<path d="M31.3562 29.2493C24.0461 37.7187 22.7914 52.1296 14.6824 44.4946C6.57349 36.8596 5.92591 23.8044 13.236 15.3351C20.5461 6.86576 33.0458 6.1894 41.1547 13.8244C49.2637 21.4594 38.6663 20.78 31.3562 29.2493Z" fill="url(#paint1_linear_13_121)"/>
<path d="M75.995 57.7858C74.375 57.7858 72.815 57.5308 71.315 57.0208C69.815 56.4808 68.48 55.7608 67.31 54.8608L66.59 57.5608H64.7L63.98 47.2108L66.05 46.8958C66.44 48.1558 66.935 49.2958 67.535 50.3158C68.135 51.3358 68.825 52.2208 69.605 52.9708C70.385 53.7208 71.255 54.2908 72.215 54.6808C73.205 55.0708 74.24 55.2658 75.32 55.2658C76.49 55.2658 77.48 55.0708 78.29 54.6808C79.1 54.2908 79.715 53.7358 80.135 53.0158C80.585 52.2958 80.81 51.4558 80.81 50.4958C80.81 49.3558 80.555 48.4108 80.045 47.6608C79.535 46.9108 78.755 46.2508 77.705 45.6808C76.655 45.1108 75.335 44.5858 73.745 44.1058C72.425 43.6858 71.195 43.2058 70.055 42.6658C68.945 42.0958 67.97 41.4358 67.13 40.6858C66.29 39.9058 65.63 38.9908 65.15 37.9408C64.67 36.8608 64.43 35.5858 64.43 34.1158C64.43 33.0658 64.595 32.0608 64.925 31.1008C65.255 30.1408 65.72 29.2558 66.32 28.4458C66.95 27.6058 67.715 26.8858 68.615 26.2858C69.515 25.6558 70.535 25.1758 71.675 24.8458C72.845 24.5158 74.105 24.3508 75.455 24.3508C76.985 24.3508 78.35 24.5758 79.55 25.0258C80.75 25.4458 81.83 26.0308 82.79 26.7808L83.285 24.3508H85.04L86.21 34.2058L84.095 34.6108C83.525 32.7808 82.82 31.2958 81.98 30.1558C81.14 28.9858 80.21 28.1308 79.19 27.5908C78.17 27.0208 77.06 26.7358 75.86 26.7358C74.33 26.7358 73.115 27.1558 72.215 27.9958C71.315 28.8058 70.865 29.9158 70.865 31.3258C70.865 32.4358 71.12 33.3508 71.63 34.0708C72.17 34.7908 72.935 35.4058 73.925 35.9158C74.945 36.4258 76.145 36.9208 77.525 37.4008C78.965 37.8508 80.285 38.3758 81.485 38.9758C82.715 39.5458 83.765 40.2208 84.635 41.0008C85.535 41.7508 86.225 42.6508 86.705 43.7008C87.215 44.7508 87.47 45.9958 87.47 47.4358C87.47 49.0858 87.14 50.5558 86.48 51.8458C85.85 53.1058 84.98 54.1858 83.87 55.0858C82.79 55.9858 81.56 56.6608 80.18 57.1108C78.83 57.5608 77.435 57.7858 75.995 57.7858ZM90.0261 57.1558V55.2658L92.0061 54.9958C92.5161 54.9358 92.8311 54.7708 92.9511 54.5008C93.1011 54.2008 93.1761 53.6608 93.1761 52.8808V39.1108C93.1761 38.1208 93.0861 37.4458 92.9061 37.0858C92.7261 36.6958 92.2911 36.4558 91.6011 36.3658L89.8461 36.1858L90.0261 34.2058L99.8361 33.7108L100.331 34.0258V52.9708C100.331 53.6308 100.406 54.1108 100.556 54.4108C100.706 54.7108 101.051 54.9058 101.591 54.9958L103.526 55.3108V57.1558H90.0261ZM96.1911 29.8858C94.8411 29.8858 93.7761 29.5558 92.9961 28.8958C92.2161 28.2058 91.8261 27.2758 91.8261 26.1058C91.8261 24.9658 92.2011 24.0508 92.9511 23.3608C93.7311 22.6708 94.8111 22.3258 96.1911 22.3258C97.6311 22.3258 98.7111 22.6708 99.4311 23.3608C100.181 24.0208 100.556 24.9358 100.556 26.1058C100.556 27.2758 100.166 28.2058 99.3861 28.8958C98.6061 29.5558 97.5411 29.8858 96.1911 29.8858ZM116.884 57.7858C114.454 57.7858 112.369 57.3208 110.629 56.3908C108.919 55.4308 107.599 54.0808 106.669 52.3408C105.769 50.5708 105.319 48.4858 105.319 46.0858C105.319 43.3558 105.844 41.0458 106.894 39.1558C107.974 37.2658 109.444 35.8258 111.304 34.8358C113.164 33.8458 115.279 33.3508 117.649 33.3508C119.599 33.3508 121.294 33.6958 122.734 34.3858C124.174 35.0458 125.284 36.0208 126.064 37.3108C126.874 38.6008 127.279 40.1458 127.279 41.9458C127.279 42.5158 127.249 43.0858 127.189 43.6558C127.159 44.2258 127.084 44.7958 126.964 45.3658H112.744C112.774 47.0158 113.029 48.4108 113.509 49.5508C114.019 50.6908 114.754 51.5458 115.714 52.1158C116.674 52.6858 117.814 52.9708 119.134 52.9708C120.454 52.9708 121.669 52.7758 122.779 52.3858C123.889 51.9658 125.029 51.2908 126.199 50.3608L127.504 51.8008C126.394 53.6308 124.939 55.0858 123.139 56.1658C121.339 57.2458 119.254 57.7858 116.884 57.7858ZM112.744 43.2508H120.304C120.364 42.8308 120.394 42.4258 120.394 42.0358C120.424 41.6158 120.439 41.1958 120.439 40.7758C120.439 38.9458 120.169 37.6108 119.629 36.7708C119.119 35.9308 118.324 35.5108 117.244 35.5108C116.344 35.5108 115.579 35.7658 114.949 36.2758C114.319 36.7858 113.809 37.6108 113.419 38.7508C113.059 39.8908 112.834 41.3908 112.744 43.2508ZM138.362 57.1558L130.937 38.7508C130.727 38.1508 130.532 37.7008 130.352 37.4008C130.172 37.0708 129.977 36.8308 129.767 36.6808C129.557 36.5008 129.242 36.3658 128.822 36.2758L127.472 35.9608L127.742 33.9808H141.152V35.8708L139.352 36.1408C138.782 36.2008 138.422 36.3958 138.272 36.7258C138.152 37.0558 138.242 37.6258 138.542 38.4358L143.537 51.7108H143.717L148.307 38.7058C148.577 37.9258 148.637 37.3408 148.487 36.9508C148.367 36.5608 147.947 36.3058 147.227 36.1858L145.472 35.8708L145.787 33.9808H154.787V35.9158L153.257 36.1858C152.687 36.3058 152.252 36.5158 151.952 36.8158C151.682 37.0858 151.367 37.6858 151.007 38.6158L144.257 57.1558H138.362ZM165.921 57.7858C163.491 57.7858 161.406 57.3208 159.666 56.3908C157.956 55.4308 156.636 54.0808 155.706 52.3408C154.806 50.5708 154.356 48.4858 154.356 46.0858C154.356 43.3558 154.881 41.0458 155.931 39.1558C157.011 37.2658 158.481 35.8258 160.341 34.8358C162.201 33.8458 164.316 33.3508 166.686 33.3508C168.636 33.3508 170.331 33.6958 171.771 34.3858C173.211 35.0458 174.321 36.0208 175.101 37.3108C175.911 38.6008 176.316 40.1458 176.316 41.9458C176.316 42.5158 176.286 43.0858 176.226 43.6558C176.196 44.2258 176.121 44.7958 176.001 45.3658H161.781C161.811 47.0158 162.066 48.4108 162.546 49.5508C163.056 50.6908 163.791 51.5458 164.751 52.1158C165.711 52.6858 166.851 52.9708 168.171 52.9708C169.491 52.9708 170.706 52.7758 171.816 52.3858C172.926 51.9658 174.066 51.2908 175.236 50.3608L176.541 51.8008C175.431 53.6308 173.976 55.0858 172.176 56.1658C170.376 57.2458 168.291 57.7858 165.921 57.7858ZM161.781 43.2508H169.341C169.401 42.8308 169.431 42.4258 169.431 42.0358C169.461 41.6158 169.476 41.1958 169.476 40.7758C169.476 38.9458 169.206 37.6108 168.666 36.7708C168.156 35.9308 167.361 35.5108 166.281 35.5108C165.381 35.5108 164.616 35.7658 163.986 36.2758C163.356 36.7858 162.846 37.6108 162.456 38.7508C162.096 39.8908 161.871 41.3908 161.781 43.2508Z" fill="white"/>
<defs>
<linearGradient id="paint0_linear_13_121" x1="20.3899" y1="67.8557" x2="46.3016" y2="36.6177" gradientUnits="userSpaceOnUse">
<stop stop-color="#826DF9"/>
<stop offset="0.2826" stop-color="#7F6DF9"/>
<stop offset="0.5233" stop-color="#746FFA"/>
<stop offset="0.7488" stop-color="#6371FC"/>
<stop offset="0.9637" stop-color="#4A74FF"/>
<stop offset="1" stop-color="#4575FF"/>
</linearGradient>
<linearGradient id="paint1_linear_13_121" x1="35.9066" y1="8.88299" x2="8.15925" y2="38.3527" gradientUnits="userSpaceOnUse">
<stop stop-color="#826DF9"/>
<stop offset="0.2826" stop-color="#7F6DF9"/>
<stop offset="0.5233" stop-color="#746FFA"/>
<stop offset="0.7488" stop-color="#6371FC"/>
<stop offset="0.9637" stop-color="#4A74FF"/>
<stop offset="1" stop-color="#4575FF"/>
</linearGradient>
</defs>
</svg>
